<?xml version="1.0" encoding="utf-8"?>
<!-- Generator: Adobe Illustrator 26.3.1, SVG Export Plug-In . SVG Version: 6.00 Build 0)  -->
<svg version="1.1" id="レイヤー_1" xmlns="http://www.w3.org/2000/svg" xmlns:xlink="http://www.w3.org/1999/xlink" x="0px"
	 y="0px" viewBox="0 0 536.5 183.3" style="enable-background:new 0 0 536.5 183.3;" xml:space="preserve">
<style type="text/css">
	.st0{fill:#FFFFFF;}
	.st1{fill:#124986;}
</style>
<path class="st0" d="M524,32.4c0-8.4-6.6-15-15.1-15l-30.6,0.2v-2.5c0-8.6-6.8-15.1-15.8-15.1c-8.9,0-15.8,6.6-16.1,15.1v2.4
	l-30.8-0.2c-8.5,0-14.8,6.2-15.2,14.4c-2.3-10.5-11.7-18.2-23.4-18.8c-7.9-0.4-16.8-0.5-25.9-0.5c-10.8,0-22,0.3-32.3,0.5
	c-13.6,0.3-22.3,7.2-24.9,19.4c-2.5-7.5-9.7-12.5-19.1-12.9c-3.6-0.1-7.5-0.1-11.7-0.1c-2.6,0-5.3,0.1-8,0.1
	c0.2-1.3,0.3-2.5,0.3-3.3c0-8.3-7-15.1-15.5-15.1c-7.7,0-13.8,5.6-14.7,13.6c-0.3,2.6-0.8,5.1-1.3,7.5c-3.6-5.1-9.5-8.4-16.6-8.8
	c-2.1-0.1-4.3-0.1-6.6-0.1c-2.2,0-4.4,0.1-6.3,0.2c-11.8,0.6-19.8,8.8-20.1,20.4l-0.1,21.6l0.1,21.9c0.2,11.3,8,19.9,19.2,21
	c3.1,0.2,6.9,0.4,10.1,0.2c-6.9,2.1-11.5,7.9-11.5,14.7c0,8.4,6.8,15,15.5,15c4.8,0,27.3-5.2,42.7-27.5
	c9.1,14.3,21.6,26.2,31.7,26.2c8.6,0,15.6-6.7,16.1-15.1c4.3,5.7,11.4,9.1,20.7,9.5c8.1,0.3,16.8,0.6,25.7,0.6
	c10.5,0,21.3-0.2,32.2-0.6c13.7-0.4,23.9-10.5,24.3-24c0.3-6.5,0.4-18.8,0.4-31.3c0-10.9-0.2-22-0.4-29.5
	c1.8,6.4,7.6,10.9,14.7,10.9h3.1c-4.1,3.9-6.4,9.5-6.5,16.3c-0.1,9.5-0.2,22.3-0.2,33.3v7.7c0.3,8.2,7,14.3,15.6,14.3
	c8.7,0,15.3-6.2,15.3-14.8c-0.1-5.9-0.1-13.1-0.1-20c0-5.1,0-10.2,0.1-14.4c1.2,0,2.5,0,3.9,0l-0.1,43.4c0,8.7,6.7,15.3,15.6,15.3
	c7.6,0,13.7-5,15.1-12c2.4,0.6,5.3,0.9,8.7,0.9c15.8,0,27.3-10.3,27.3-25.2l-0.1-4.4c-0.1-1.9-0.1-3.4-0.1-4.6v-7.9
	c0-3.7,0-8.1-0.1-12c-0.1-6.5-2.4-11.9-6.4-15.8h2.1C517.5,47.5,524,41,524,32.4z M365,92.1c-1.2,0-2.4,0.1-3.7,0.1V79h10
	c-0.1,4.7-0.2,9.1-0.4,13c-0.1,0-0.3,0-0.4,0L365,92.1z M371.2,50h-9.9h-0.1v-8.6c4.1,0,7.5,0.1,9.7,0.3l0.1,2.5
	C371.1,46,371.2,47.9,371.2,50z M331.4,79v13.4c-3.2-0.1-6.2-0.2-8.2-0.4c-0.2-3.5-0.2-8-0.2-13H331.4z M331.3,41.4V50h-8.2
	c0.1-3.1,0.1-5.9,0.1-8.2C325.2,41.5,328.1,41.4,331.3,41.4z M227.5,77.8c0.1-2,0.2-4,0.2-6c1.7-0.4,3.4-1.1,4.9-2.1
	c-1.1,4.3-3,9.2-5.9,13.7C227.2,81.5,227.4,79.6,227.5,77.8z M290.1,97.6c-9.1-5-17.5-15-22-24.8c0.7,0.1,1.5,0.1,2.2,0.1
	c5.8,0,10.9-2.9,14-8c1.3-2.1,6.1-10.1,8.8-17.8c-0.1,5.5-0.1,12-0.1,18.8c0,12,0.2,24.4,0.4,31.8c0,0.9,0.1,1.7,0.2,2.5
	C292.6,99.2,291.4,98.3,290.1,97.6z M478,86.2V69.8c1.6,0,3.2,0.1,4.6,0.1c0,5.4,0.1,12.4,0.2,16.9c-0.3-0.1-0.6-0.1-0.8-0.2
	c-1.6-0.4-2.9-0.4-3.5-0.4C478.3,86.2,478.2,86.2,478,86.2z"/>
<g>
	<path class="st0" d="M256.4,144.1c-2.4,0-4.7,0.8-6.6,2.1c-1.8-1.3-4.1-2.1-6.6-2.1c-3,0-5.8,1.2-7.9,3.3c-1.9,1.9-2.9,4.4-2.9,7.1
		c-1-6.1-7.2-10.6-15-10.6c-8.5,0-15.1,6.3-15.1,14.4c0,2,0.4,3.9,1.2,5.7c-1.3,1.8-2,3.9-2,6.2c0,6.3,6.1,13.1,15.9,13.1
		c8.6,0,14.3-5.6,15.7-11.9c2.4,7.8,9.6,11.9,16.5,11.9c4.7,0,9.3-1.9,12.5-5.2c3.3-3.4,5-7.9,4.9-12.9l0-0.7c0-1.4,0-2.6,0-3.9
		c0-1.6,0-3.4,0.1-5.7l0-0.2C267.2,148.8,262.5,144.1,256.4,144.1z M232.5,157.7c0,0.6,0,1.3,0,1.9c0,0.9,0,1.9,0,2.8
		c-0.3-0.6-0.5-1.1-0.9-1.7C232.1,159.8,232.4,158.7,232.5,157.7z"/>
	<path class="st0" d="M351.9,167.9c-0.8-1.8-4.2-11-5.9-15.9c-1.7-4.8-6.2-8-11.2-8c-5.1,0-9.4,3.1-11.1,8l-0.3,0.9
		c-0.2,0.7-0.5,1.4-0.7,2c0,0,0-0.1,0-0.1c0-6-4.7-10.7-10.7-10.7l-0.2,0c-0.9,0-3.3,0.1-5.9,0.1c-2.7,0-5.6,0-7.1-0.1l-0.2,0
		c-4.6,0-8.4,2.7-10,6.7c-1.5-4-5.4-6.7-10.1-6.7c-1.4,0-5.1,0.3-8,3.4c-2,2.1-3,4.8-2.9,7.6c0.1,2.3,0.1,4.6,0.1,6.8
		c0,2.8-0.1,5.7-0.1,8.3l0,2.1c0,6,4.8,10.7,10.9,10.7s10.9-4.7,10.9-10.7l0-0.1c-0.1-3.2-0.1-6.7-0.1-10.1c0-0.6,0-1.3,0-1.9
		c1.2,2.1,3.1,3.7,5.4,4.6c0,3.1,0,5.8-0.1,7.4l0,0.2c0,6,4.8,10.7,10.9,10.7c3.1,0,6-1.2,8-3.4c2-2.1,3-4.8,2.8-7.7
		c-0.1-1.7-0.1-4.5-0.1-7.2c1.6-0.7,3-1.7,4.1-3.1c-3.1,8.8-3.1,9.1-3.1,10.8c0,5.8,4.8,10.6,10.8,10.6c2.6,0,5.1-0.9,7-2.5
		c1.9,1.6,4.4,2.5,7,2.5c6.1,0,10.9-4.7,10.9-10.7c0-1.5-0.3-2.9-0.8-4.3L351.9,167.9z"/>
	<path class="st0" d="M483.7,144.1c-2.4,0-4.6,0.8-6.5,2.2c-1.8-1.4-4.1-2.2-6.5-2.2c-3.9,0-7.4,2.2-9.4,5.4
		c-1.8-3.2-5.2-5.3-9.2-5.3l-0.2,0c-0.9,0-3.3,0.1-5.9,0.1c-2.7,0-5.6,0-7.1-0.1l-0.2,0c-4.6,0-8.4,2.7-10,6.7
		c-1.5-4-5.4-6.7-10.1-6.7c-1.4,0-5.1,0.3-8,3.4c-1.8,1.9-2.8,4.4-2.9,7c-1.5-6.1-8.2-10.6-16.1-10.6c-11.2,0-19.7,8.6-19.7,19.9
		c0,11.1,8.4,19.5,19.6,19.5c7.5,0,14-3.9,16.4-9.1c0.9,5.1,5.3,8.9,10.7,8.9c6.1,0,10.9-4.7,10.9-10.7l0-0.1
		c-0.1-3.2-0.1-6.7-0.1-10.1c0-0.6,0-1.3,0-1.9c1.2,2.1,3.1,3.7,5.4,4.6c0,3,0,5.8-0.1,7.4l0,0.2c0,6,4.8,10.7,10.9,10.7
		c3.1,0,6-1.2,8-3.4c2-2.1,3-4.8,2.8-7.7c-0.1-1.7-0.1-4.5-0.1-7.2c2.1-0.9,3.8-2.4,5-4.3c0.1,0.2,0.2,0.4,0.4,0.6
		c0.5,0.8,1.2,1.9,2.1,3.1c0,0,1.8,2.7,2.6,3.9v4.2c0,6.1,4.8,10.8,11,10.8c6.1,0,10.9-4.7,10.9-10.8c0-1.2,0-2.5,0-3.8l0-0.4
		c1.8-2.6,3.9-5.7,4.9-7.4l0.1-0.1c1-1.7,1.6-3.6,1.6-5.5C494.8,149.1,489.7,144.1,483.7,144.1z M407.9,159.1c0,1,0,1.9,0,2.9
		c0,1,0,2,0,3c-0.4-0.8-0.9-1.5-1.4-2.2C407.1,161.7,407.6,160.4,407.9,159.1z"/>
</g>
<g id="グループ_4079" transform="translate(0 14.08)">
	<circle id="楕円形_24" class="st0" cx="74.1" cy="74" r="49.6"/>
	<path id="パス_5582" class="st1" d="M126.4,73.9c4-2.1,10.7-6.4,9.9-10.9s-8.6-6.2-13-6.9c3-3.3,7.9-9.6,5.6-13.6
		c-2.3-4-10.2-2.9-14.6-2c1.7-4.2,4.1-11.8,0.6-14.7s-10.6,0.7-14.4,3.1c0.2-4.5-0.1-12.5-4.5-14.1s-9.7,4.3-12.5,7.9
		c-1.4-4.3-4.4-11.7-9-11.7s-7.6,7.4-9,11.7c-2.8-3.6-8.1-9.5-12.5-7.9s-4.7,9.5-4.5,14c-3.8-2.4-10.9-6.1-14.4-3.1
		S33,36.3,34.7,40.4c-4.4-1-12.3-2-14.6,2s2.6,10.3,5.6,13.6c-4.5,0.6-12.3,2.3-13.1,6.9s5.9,8.8,9.9,10.9c-4,2.1-10.7,6.4-9.9,10.9
		s8.6,6.2,13.1,6.8c-3,3.3-7.9,9.6-5.6,13.7s10.1,2.9,14.6,1.9c-1.7,4.2-4.1,11.8-0.6,14.7c3.5,2.9,10.6-0.7,14.4-3.1
		c-0.2,4.5,0.1,12.5,4.5,14.1c4.4,1.6,9.7-4.3,12.5-7.9c1.4,4.3,4.4,11.7,9,11.7s7.6-7.4,9-11.7c2.8,3.6,8.1,9.5,12.5,7.9
		c4.4-1.6,4.7-9.5,4.5-14c3.8,2.4,10.9,6.1,14.4,3.2s1.1-10.6-0.6-14.7c4.4,1,12.3,2,14.6-2s-2.6-10.3-5.6-13.6
		c4.5-0.6,12.3-2.3,13.1-6.9C137.2,80.2,130.4,76,126.4,73.9z M74.5,121.9c-26.5,0-48-21.5-48-48.1c0-26.5,21.5-48,48.1-48
		c26.5,0,48,21.5,48,48C122.6,100.4,101,121.9,74.5,121.9L74.5,121.9z"/>
	<path id="パス_5583" class="st1" d="M115.2,71c-8.7-6.5-16.1-21.9-18.2-25.8c-0.5-1-2.1-3.5-4.4-3.5c-2-0.3-3.9,1.1-4.3,3
		c0,0.1-0.4,2-0.9,4.1c-0.9,4-4.7,6.5-8.4,7.7V41.8c0-1.2,3.7-4.3,3.7-4.3c-3.7-4.5-10.5-5.2-15-1.4c-0.5,0.4-1,0.9-1.4,1.4
		c0,0,3.4,3.1,3.4,4.1v19.1l0,0v1.4c0.3,2.2,2.2,3.8,4.4,3.8c6,0,14.4-4.2,19.2-9.8c2.8,4.7,6,10.3,11.8,16.6
		c-1.5,0.3-3.1,0.4-4.7,0.4c-4.9,0.1-9.5-2.6-10.2-3.4l0,0l0,0c-0.6-1-1.2-2.2-1.2-2.2l-7.4,2.9c0,0,1.5,6.1,3.4,8.7h5.2
		c3.3,1.4,6.8,2.1,10.4,2.1c5.1-0.1,12.6-2.7,13.5-3c0,0,2.6-1.2,2.9-3.2C117.2,73.5,116.5,71.9,115.2,71z M74.5,37c1.1,0,2,0.9,2,2
		c0,1.1-0.9,2-2,2s-2-0.9-2-2l0,0C72.5,37.9,73.4,37,74.5,37z"/>
	<path id="パス_5584" class="st1" d="M60.1,52.7c-3.1-5.3-0.4-9-4.6-10.9c-4.2-1.9-8.1,2.2-9.4,6.5c-1,3.2-2.5,11.2-3.3,15.1
		c-0.8,3.8-1.8,10.1-12,11.8c0,0,3.6,7.7,11.4,8.7s15.2-3.7,17.2-6l3.7,2.9c0,0,4.9-6.3,5.5-23C65.1,57.6,61.9,55.7,60.1,52.7z
		 M58.1,66.6c0,0-3.7,6.8-9.5,7.3c1.8-5.4,3.3-10.8,4.4-16.4c0,0,5.9,6.8,12.7,8.7c0,0-0.5,6.2-1.5,7.5
		C64.3,73.6,58.8,68.8,58.1,66.6z"/>
	<path id="パス_5585" class="st1" d="M70.6,67.7h8.8c0,0-0.6,19.2,23.7,29.6c0,0-9.6,11.7-21.7,12.2c0,0-5.6-9.8-6.9-13.7
		c0,0-1.8,8.3-6.2,13.8c0,0-15.5-2.3-22.8-13.4C45.5,96.3,66,93.5,70.6,67.7z"/>
	<g id="グループ_4078" transform="translate(21.249 19.884)">
		<path id="パス_5586" class="st1" d="M10.8,34.1l9.2,9.2l0.7-0.7l-9.2-9.2"/>
		<path id="パス_5587" class="st1" d="M36.8,60.1l4.4,4.4l0.7-0.7l-4.4-4.4"/>
		<path id="パス_5588" class="st1" d="M66.6,89.9l5.9,5.9l0.7-0.7l-5.9-5.9"/>
		<path id="パス_5589" class="st1" d="M37.8,9.8l6.8,6.8l0.7-0.7l-6.7-6.8"/>
		<path id="パス_5590" class="st1" d="M88.8,60.8l7.7,7.7l0.7-0.7l-7.7-7.7"/>
		<path id="パス_5591" class="st1" d="M94.9,33.3l-8.4,8.4l0.7,0.7l8.4-8.4"/>
		<path id="パス_5592" class="st1" d="M68.6,59.7l-4,4l0.7,0.7l4-4"/>
		<path id="パス_5593" class="st1" d="M39.4,88.9L33.2,95l0.7,0.7l6.2-6.2"/>
		<path id="パス_5594" class="st1" d="M67.8,9.1l-6.6,6.7l0.7,0.7l6.7-6.7"/>
		<path id="パス_5595" class="st1" d="M47.2,29.7L42,34.9l0.7,0.7l5.2-5.2"/>
		<path id="パス_5596" class="st1" d="M14.4,62.6l-5.2,5.1l0.7,0.7l5.2-5.2"/>
		<path id="パス_5597" class="st1" d="M58.4,30.3l3.3,3.5l0.8-0.7l-3.3-3.5"/>
	</g>
</g>
<g>
	<path class="st1" d="M285.7,105.5c-15.2-8.4-28.4-27.6-30-44c0-0.5-0.1-0.9-0.2-1.4l0.1-0.9c0.1-0.7,0.4-3,0.4-8.9
		c-0.2-3.7-3.3-5.5-6.4-5.5c-3.1,0-6.2,1.7-6.2,5.2v0.4c0.1,2.6,0.1,4.3,0.1,6.2c0,16.4-7.8,44.1-36.6,50.6
		c-3.7,0.9-5.4,3.3-5.4,5.9c0,2.8,2.2,5.7,6.2,5.7c1,0,30.3-4.4,42.8-38.5c7.4,19.3,23.9,37.1,31.7,37.1c4,0,6.8-3.3,6.8-6.7
		C289,108.7,288,106.7,285.7,105.5z"/>
	<path class="st1" d="M224.3,62.7c2,0,4.1-1,5.7-3.5c4.3-6.6,7.8-13.2,10.4-20.4h9.2c7.9,0,16.6,0,20.8,0.1c1.9,0,2.5,0.9,2.5,1.9
		c0,3.1-6.8,13.7-7.5,14.8c-0.7,1-1,2-1,3c0,2.8,2.8,4.9,6.1,4.9c2.2,0,4.5-1,6.1-3.6c2-3.2,9.3-16.1,9.3-21.8
		c0-5.6-4.2-9.4-11.1-9.6c-3.5-0.1-7.3-0.1-11.4-0.1c-6.6,0-13.5,0.1-19.5,0.2c2-7.7,2.6-11.9,2.6-12.7c-0.3-3.6-3.4-5.8-6.5-5.8
		c-2.5,0-5.1,1.6-5.6,5.6c-2,16.1-7.9,28.9-14.3,38c-0.9,1.2-1.2,2.6-1.2,3.7C218.9,60.4,221.4,62.7,224.3,62.7z"/>
	<path class="st1" d="M218.2,77.2c0.2-7.3,0.4-14.8,0.4-22.3s-0.1-15-0.4-21.8c-0.2-6.1-4.7-10.4-11.5-10.8c-1.8,0-3.8,0-5.9,0
		c-2,0-4,0-5.8,0.1c-7.2,0.4-11.1,4.8-11.3,11.3c0,6.9-0.1,14.3-0.1,21.6c0,7.4,0.1,14.8,0.1,21.8c0.1,6.6,4.5,11.3,10.5,11.9
		c2,0.1,4.2,0.2,6.4,0.2C209,89.2,217.8,88,218.2,77.2z M207.1,74.8c-0.3,1.4-0.8,3.9-5.9,3.9c-6.1,0-6.3-1.5-6.3-3.7
		c0-6.4-0.1-13.2-0.1-19.8c0-6.7,0.1-13.2,0.1-19c0-3.6,3.2-3.8,6.1-3.8c3.7,0,6.1,0.4,6.1,3.7c0.1,6.7,0.2,14.3,0.2,22.1
		C207.3,63.8,207.3,69.5,207.1,74.8z"/>
	<path class="st1" d="M376.7,22c-7.8-0.4-16.6-0.5-25.5-0.5c-10.8,0-21.9,0.2-32.2,0.5c-11.7,0.2-16.3,6.6-16.6,16.9
		c-0.1,6.4-0.2,16.4-0.2,26.8c0,11.9,0.1,24.1,0.4,31.4c0.4,9,5.8,14.2,16.6,14.7c8,0.4,16.5,0.7,25.3,0.7c10.4,0,21.1-0.2,32-0.6
		c8.9-0.2,15.1-6.6,15.3-15.1c0.2-6.4,0.4-18.5,0.4-30.9c0-11-0.1-22.3-0.4-29.7C391.6,27.5,384.3,22.3,376.7,22z M314,40.3
		c0.4-8.1,2.3-8.5,26.6-8.5V59h-27C313.7,52,313.8,45.3,314,40.3z M340.7,101.5c-24,0-26.5-0.4-26.7-8.5c-0.3-5.8-0.3-14.4-0.3-23.4
		h27V101.5z M380.2,92.6c-0.2,5.3-2.6,8.4-9.5,8.5c-5.8,0.1-12.2,0.4-18.7,0.4V69.6h28.6C380.6,78.3,380.5,86.7,380.2,92.6z M352,59
		V31.8c26.1,0,27.9,0,28.2,8.5c0.1,4.8,0.4,11.5,0.4,18.7H352z"/>
	<path class="st1" d="M508.9,26.5l-40.1,0.3l0.1-11.9c0.1-3.9-3.1-5.8-6.4-5.8c-3.2,0-6.6,2-6.6,5.8l0.1,11.9l-40.2-0.3
		c-4,0-5.9,2.8-5.9,5.8c0,2.8,2,5.7,5.9,5.7l46.4-0.2l46.7,0.2c3.8,0,5.8-2.8,5.8-5.8C514.7,29.4,512.7,26.5,508.9,26.5z"/>
	<path class="st1" d="M504.1,75.1c0-3.6,0-7.9-0.1-11.9c-0.1-8.5-5.9-12.9-14.2-13.1c-5.3-0.1-13.1-0.2-21.3-0.2v-4.6
		c0-4.1-3.1-6.1-6-6.1c-3.1,0-6.2,2-6.2,6.1v4.6c-7.9,0-15.2,0.1-19.9,0.2c-9.3,0.2-14.5,4.7-14.6,13.6c-0.1,9.4-0.2,22.1-0.2,33.1
		v7.4c0.1,3.6,3.2,5.3,6.3,5.3c3.1,0,6.1-1.7,6.1-5.2c-0.2-6-0.2-13.3-0.2-20.2c0-6.9,0-13.6,0.1-18.2c0.1-3.8,1.6-5.4,4.9-5.4
		c3.8-0.1,10.4-0.1,17.4-0.1l-0.1,52.7c0,4.1,3.1,6.1,6.3,6.1c3.1,0,6.2-2,6.2-6.1V60.2c7.4,0,14.3,0.1,18.5,0.2
		c3.2,0.1,4.6,2.1,4.6,4.7c0.1,8,0.2,26,0.2,26c0,4-2.7,5.2-6.1,5.2c-2.1,0-4.3-0.5-6.3-1c-0.5-0.1-0.9-0.1-1.2-0.1
		c-3.2,0-5.1,3-5.1,5.9c0,5.8,6.7,6.8,13,6.8c11.5,0,18.1-6.8,18.1-15.3v-0.3c-0.1-4.6-0.2-7.2-0.2-9.3V75.1z"/>
</g>
<g>
	<path class="st1" d="M220.6,162.6c-1.2-0.7-3.1-1.5-4.2-2.1c-1.2-0.6-1.7-1.5-1.7-2.4c0-1.2,1.1-2.3,2.8-2.3c1.7,0,2.6,0.7,3.1,1.2
		c0.4,0.5,0.9,0.6,1.3,0.6c0.8,0,1.5-0.8,1.5-1.6c0-1.3-2.1-3-5.9-3c-3.7,0-5.8,2.5-5.8,5.1c0,1.9,1.1,3.8,3.5,4.9
		c1.4,0.6,2.9,1.5,4.1,2.1c1.4,0.8,2.1,1.9,2.1,3c0,0.9-0.6,2.9-3.6,2.9c-1.9,0-3.2-0.8-3.9-1.8c-0.3-0.5-0.8-0.7-1.2-0.7
		c-0.8,0-1.6,0.6-1.6,1.5c0,1.3,2.3,3.8,6.7,3.8c4.4,0,6.8-3,6.8-5.9C224.5,166.2,223.3,164.1,220.6,162.6z"/>
	<path class="st1" d="M257.9,160.5c0-1.8,0-3.6,0.1-5.8v-0.1c0-0.9-0.8-1.4-1.6-1.4c-0.5,0-1.6,0.2-1.6,1.4c0,1.2,0.1,2.3,0.1,3.5
		c0,2.4-0.1,4.8-0.1,7.1c0,3.7-2.6,5.6-5.2,5.6c-2.5,0-4.9-1.8-4.9-5.4v-0.1c0-0.4,0-0.7,0-1c0-2.2-0.1-4.4-0.1-6.6
		c0-1.1,0-2.1,0.1-3.2v-0.1c0-0.9-0.8-1.4-1.5-1.4c-1.1,0-1.6,0.6-1.6,1.4c0.1,1.6,0.1,3.2,0.1,4.8c0,2,0,4,0,5.9v0.1
		c0,5.6,4,8.4,8.1,8.4c4,0,8.3-2.8,8.2-8.7C257.9,163.5,257.9,162,257.9,160.5z"/>
	<path class="st1" d="M278.4,153.4c-0.5,0-1.7,0.3-1.6,1.4c0.1,2.2,0.1,4.6,0.1,7.2c0,3.5-0.1,7.1-0.1,10.3v0c0,0.9,0.8,1.4,1.6,1.4
		c0.8,0,1.6-0.5,1.6-1.4v0c-0.1-3.3-0.1-6.8-0.1-10.2c0-2.6,0-5.2,0.1-7.4v-0.1C279.9,153.8,279.1,153.4,278.4,153.4z"/>
	<path class="st1" d="M312,153.4L312,153.4c-1.6,0-3.9,0.1-6.2,0.1c-2.8,0-5.7,0-7.3-0.1h-0.1c-1,0-1.5,0.7-1.5,1.4
		c0,0.7,0.5,1.5,1.5,1.5c1.3,0,2.5-0.1,3.6-0.1c1.6,0,1.7,0,1.7,0.5c0.1,1.4,0.1,3.7,0.1,6c0,3.6,0,7.5-0.1,9.6v0
		c0,0.9,0.8,1.4,1.6,1.4c0.8,0,1.7-0.5,1.6-1.4c-0.1-2-0.1-5.3-0.1-8.5c0-2.6,0-5.3,0.1-7.1c0-0.5,0-0.5,2.7-0.5
		c0.6,0,1.4,0,2.3,0.1h0.1c0.9,0,1.3-0.7,1.3-1.4C313.3,154.2,313,153.4,312,153.4z"/>
	<path class="st1" d="M337.2,155.2c-0.4-1.2-1.5-1.9-2.5-1.9c-1,0-1.9,0.6-2.4,1.8c-5.9,16.6-6,16.8-6,17.3c0,0.8,0.8,1.3,1.5,1.3
		c0.6,0,1.3-0.4,1.5-1.1c0.4-1.3,1-3.2,1.7-5.4c0.1-0.2,0.2-0.2,0.3-0.2c0.6,0,2.4,0,4,0c1.2,0,2.3,0,2.8,0c0.2,0,0.2,0.1,0.3,0.2
		c0.8,2.5,1.5,4.7,1.9,5.5c0.3,0.7,0.9,1,1.5,1c0.8,0,1.6-0.5,1.6-1.5c0-0.2-0.1-0.5-0.2-0.8C342.4,169.4,338.9,160.1,337.2,155.2z
		 M337.2,164.2c-0.4,0-1.3,0-2.3,0c-0.9,0-1.9,0-2.5,0c-0.2,0-0.2-0.1-0.2-0.2c0-0.2,1.8-5.3,2.2-6.4c0.2-0.5,0.4-0.8,0.5-0.8
		c0.2,0,0.3,0.3,0.5,0.8c0.4,1.3,1.2,3.8,2.1,6.3l0,0.1C337.4,164.2,337.3,164.2,337.2,164.2z"/>
	<path class="st1" d="M397.9,168c-0.5,0-0.9,0.2-1.3,0.7c-1.1,1.5-3.1,2.3-5.2,2.3c-5.7,0-7-5.1-7-7.3c0-3.6,2.4-7.5,7-7.5
		c1.7,0,3.4,0.6,4.5,1.9c0.4,0.5,0.9,0.7,1.4,0.7c0.9,0,1.6-0.8,1.6-1.7c0-1.5-2.9-3.9-7.2-3.9c-6.6,0-10.4,5.2-10.4,10.7
		c0,5.3,3.6,10.3,10.3,10.3c5,0,8.2-2.9,8.2-4.3C399.7,168.8,398.8,168,397.9,168z"/>
	<path class="st1" d="M418.6,153.4c-0.5,0-1.7,0.3-1.6,1.4c0.1,2.2,0.1,4.6,0.1,7.2c0,3.5-0.1,7.1-0.1,10.3v0c0,0.9,0.8,1.4,1.6,1.4
		c0.8,0,1.6-0.5,1.6-1.4v0c-0.1-3.3-0.1-6.8-0.1-10.2c0-2.6,0-5.2,0.1-7.4v-0.1C420.2,153.8,419.4,153.4,418.6,153.4z"/>
	<path class="st1" d="M452.2,153.4L452.2,153.4c-1.6,0-3.9,0.1-6.2,0.1c-2.8,0-5.7,0-7.3-0.1h-0.1c-1,0-1.5,0.7-1.5,1.4
		c0,0.7,0.5,1.5,1.5,1.5c1.3,0,2.5-0.1,3.6-0.1c1.6,0,1.7,0,1.7,0.5c0.1,1.4,0.1,3.7,0.1,6c0,3.6,0,7.5-0.1,9.6v0
		c0,0.9,0.8,1.4,1.6,1.4c0.8,0,1.7-0.5,1.6-1.4c-0.1-2-0.1-5.3-0.1-8.5c0-2.6,0-5.3,0.1-7.1c0-0.5,0-0.5,2.7-0.5
		c0.6,0,1.4,0,2.3,0.1h0.1c0.9,0,1.3-0.7,1.3-1.4C453.6,154.2,453.3,153.4,452.2,153.4z"/>
	<path class="st1" d="M485.3,155.8c0.2-0.3,0.2-0.5,0.2-0.8c0-0.9-0.9-1.7-1.8-1.7c-0.5,0-0.9,0.2-1.2,0.8c-1.1,2-3.2,5.3-4.9,7.6
		c-0.1,0.1-0.2,0.2-0.3,0.2c-0.1,0-0.2-0.1-0.3-0.2c-1.9-2.8-3.8-5.6-4.9-7.6c-0.3-0.6-0.8-0.8-1.3-0.8c-0.8,0-1.7,0.7-1.7,1.6
		c0,0.3,0.1,0.6,0.3,0.9c1.3,1.9,4,6,6,8.9c0.3,0.4,0.3,0.4,0.3,0.9v6.5c0,1.1,0.8,1.6,1.7,1.6c0.8,0,1.6-0.5,1.6-1.5
		c0-2.2,0-4.9,0-6.5c0-0.5,0-0.6,0.3-1.1C481.1,162.3,484.1,157.8,485.3,155.8z"/>
</g>
</svg>
